<svg xmlns="http://www.w3.org/2000/svg" width="668" height="258" viewBox="0 0 668 258" version="1.1"><path d="M 14 1.949 L 25.500 2.500 26 60.258 L 26.500 118.015 51.993 92.508 L 77.485 67 92.243 67 L 107 67 107 68.708 C 107 69.647, 105.313 72.235, 103.250 74.458 L 99.500 78.500 103.788 74.510 C 106.579 71.913, 107.976 69.818, 107.788 68.510 L 107.500 66.500 92.535 66.222 L 77.570 65.944 52.285 91.215 L 27 116.485 27 59.943 C 27 17.298, 26.705 3.105, 25.800 2.200 C 24.985 1.385, 21.052 1.064, 13.550 1.199 L 2.500 1.399 14 1.949 M 511.250 1.739 C 514.413 1.937, 519.587 1.937, 522.750 1.739 C 525.913 1.541, 523.325 1.378, 517 1.378 C 510.675 1.378, 508.087 1.541, 511.250 1.739 M 1.236 96.691 C 1.106 148.496, 1.337 191.091, 1.750 191.346 C 2.429 191.766, 2.423 125.687, 1.735 36.500 C 1.591 17.800, 1.366 44.886, 1.236 96.691 M 504.236 96.691 C 504.106 148.496, 504.337 191.091, 504.750 191.346 C 505.429 191.766, 505.423 125.687, 504.735 36.500 C 504.591 17.800, 504.366 44.886, 504.236 96.691 M 529 97.200 C 528.725 149.285, 528.840 191.560, 529.255 191.145 C 529.670 190.730, 529.895 148.115, 529.755 96.445 L 529.500 2.500 529 97.200 M 333.962 66.732 C 341.469 66.953, 345.723 67.489, 346.289 68.285 C 346.907 69.155, 347.037 69.074, 346.745 68 C 346.412 66.777, 344.134 66.490, 334.418 66.447 L 322.500 66.394 333.962 66.732 M 468.962 66.732 C 476.469 66.953, 480.723 67.489, 481.289 68.285 C 481.907 69.155, 482.037 69.074, 481.745 68 C 481.412 66.777, 479.134 66.490, 469.418 66.447 L 457.500 66.394 468.962 66.732 M 320.780 71.044 C 320.535 72.718, 320.708 74.320, 321.167 74.603 C 321.625 74.886, 322 73.516, 322 71.559 C 322 67.198, 321.383 66.937, 320.780 71.044 M 455.787 71 C 455.545 72.650, 455.718 74, 456.173 74 C 456.628 74, 457 72.650, 457 71 C 457 69.350, 456.826 68, 456.613 68 C 456.401 68, 456.029 69.350, 455.787 71 M 631.083 68.373 C 632.112 69.294, 638 71.999, 638 71.551 C 638 70.975, 632.456 68, 631.383 68 C 630.989 68, 630.854 68.168, 631.083 68.373 M 132.750 70.572 C 128.873 72.675, 129.312 73.401, 133.250 71.399 C 137.020 69.481, 137.687 68.985, 136.417 69.040 C 135.912 69.062, 134.262 69.751, 132.750 70.572 M 202 77.500 C 203.866 79.425, 205.617 81, 205.892 81 C 206.167 81, 204.866 79.425, 203 77.500 C 201.134 75.575, 199.383 74, 199.108 74 C 198.833 74, 200.134 75.575, 202 77.500 M 249 78.500 C 246.571 80.975, 244.809 83, 245.084 83 C 245.359 83, 247.571 80.975, 250 78.500 C 252.429 76.025, 254.191 74, 253.916 74 C 253.641 74, 251.429 76.025, 249 78.500 M 384 78.500 C 381.571 80.975, 379.809 83, 380.084 83 C 380.359 83, 382.571 80.975, 385 78.500 C 387.429 76.025, 389.191 74, 388.916 74 C 388.641 74, 386.429 76.025, 384 78.500 M 648.958 80.250 C 653.102 84.665, 654 85.459, 654 84.708 C 654 84.548, 651.862 82.410, 649.250 79.958 L 644.500 75.500 648.958 80.250 M 79.500 97 C 72.917 103.600, 67.756 109, 68.031 109 C 68.306 109, 73.917 103.600, 80.500 97 C 87.083 90.400, 92.244 85, 91.969 85 C 91.694 85, 86.083 90.400, 79.500 97 M 162.762 86.707 C 164.006 86.946, 165.806 86.937, 166.762 86.687 C 167.718 86.437, 166.700 86.241, 164.500 86.252 C 162.300 86.263, 161.518 86.468, 162.762 86.707 M 287.750 88.706 C 288.988 88.944, 291.012 88.944, 292.250 88.706 C 293.488 88.467, 292.475 88.272, 290 88.272 C 287.525 88.272, 286.512 88.467, 287.750 88.706 M 422.750 88.706 C 423.988 88.944, 426.012 88.944, 427.250 88.706 C 428.488 88.467, 427.475 88.272, 425 88.272 C 422.525 88.272, 421.512 88.467, 422.750 88.706 M 238.452 93.093 C 237.572 94.794, 237.030 96.363, 237.247 96.580 C 237.464 96.797, 238.390 95.406, 239.305 93.487 C 241.361 89.175, 240.649 88.845, 238.452 93.093 M 583.946 95.750 L 580.500 99.500 584.250 96.054 C 587.740 92.846, 588.460 92, 587.696 92 C 587.529 92, 585.842 93.688, 583.946 95.750 M 454.676 103 C 455.129 103.825, 455.740 115.525, 456.034 129 L 456.569 153.500 456.784 129.441 C 456.969 108.823, 456.775 105.105, 455.426 103.441 C 454.560 102.374, 454.223 102.175, 454.676 103 M 214 148.201 C 213.725 172.236, 213.842 191.559, 214.261 191.140 C 214.679 190.721, 214.904 171.056, 214.760 147.439 L 214.499 104.500 214 148.201 M 321.431 129.500 C 321.432 142.700, 321.574 147.962, 321.747 141.193 C 321.921 134.424, 321.920 123.624, 321.746 117.193 C 321.572 110.762, 321.431 116.300, 321.431 129.500 M 640 113.487 C 640 114.767, 635.380 115.012, 606.750 115.250 L 573.500 115.528 607.250 115.764 L 641 116 641 114 C 641 112.900, 640.775 112, 640.500 112 C 640.225 112, 640 112.669, 640 113.487 M 546.252 121.500 C 546.263 123.700, 546.468 124.482, 546.707 123.238 C 546.946 121.994, 546.937 120.194, 546.687 119.238 C 546.437 118.282, 546.241 119.300, 546.252 121.500 M 667.343 128.500 C 667.346 132.900, 667.522 134.576, 667.733 132.224 C 667.945 129.872, 667.942 126.272, 667.727 124.224 C 667.512 122.176, 667.339 124.100, 667.343 128.500 M 546.252 133.500 C 546.263 135.700, 546.468 136.482, 546.707 135.238 C 546.946 133.994, 546.937 132.194, 546.687 131.238 C 546.437 130.282, 546.241 131.300, 546.252 133.500 M 34.437 141.250 L 31.500 144.500 34.541 141.763 L 37.582 139.026 40.015 141.263 L 42.448 143.500 40.050 140.750 C 38.731 139.238, 37.589 138, 37.513 138 C 37.437 138, 36.052 139.463, 34.437 141.250 M 596.819 138.749 C 609.644 138.908, 630.344 138.907, 642.819 138.749 C 655.293 138.590, 644.800 138.461, 619.500 138.461 C 594.200 138.461, 583.993 138.591, 596.819 138.749 M 149.750 141.572 C 145.873 143.675, 146.312 144.401, 150.250 142.399 C 154.020 140.481, 154.687 139.985, 153.417 140.040 C 152.912 140.062, 151.262 140.751, 149.750 141.572 M 25.998 170.202 C 25.724 182.138, 25.847 191.556, 26.271 191.131 C 26.695 190.706, 26.919 180.940, 26.769 169.429 L 26.496 148.500 25.998 170.202 M 260 150.383 C 260 151.456, 262.975 157, 263.551 157 C 263.826 157, 263.308 155.537, 262.399 153.750 C 260.542 150.100, 260 149.339, 260 150.383 M 114.286 155.500 C 114.294 158.250, 114.488 159.256, 114.718 157.736 C 114.947 156.216, 114.941 153.966, 114.704 152.736 C 114.467 151.506, 114.279 152.750, 114.286 155.500 M 583.500 159 C 585.648 161.200, 587.631 163, 587.906 163 C 588.181 163, 586.648 161.200, 584.500 159 C 582.352 156.800, 580.369 155, 580.094 155 C 579.819 155, 581.352 156.800, 583.500 159 M 450.946 159.750 L 447.500 163.500 451.250 160.054 C 453.313 158.158, 455 156.471, 455 156.304 C 455 155.540, 454.154 156.260, 450.946 159.750 M 267 161.500 C 268.866 163.425, 270.617 165, 270.892 165 C 271.167 165, 269.866 163.425, 268 161.500 C 266.134 159.575, 264.383 158, 264.108 158 C 263.833 158, 265.134 159.575, 267 161.500 M 652.031 168.517 C 656.139 172.926, 659.704 176.397, 659.954 176.229 C 660.204 176.062, 656.843 172.454, 652.485 168.212 L 644.562 160.500 652.031 168.517 M 635 165 C 633.075 166.054, 631.860 166.935, 632.300 166.958 C 633.359 167.014, 639 164.081, 639 163.474 C 639 162.820, 638.941 162.842, 635 165 M 611.264 170.718 C 612.784 170.947, 615.034 170.941, 616.264 170.704 C 617.494 170.467, 616.250 170.279, 613.500 170.286 C 610.750 170.294, 609.744 170.488, 611.264 170.718 M 157.750 171.723 C 159.537 171.945, 162.463 171.945, 164.250 171.723 C 166.037 171.502, 164.575 171.320, 161 171.320 C 157.425 171.320, 155.963 171.502, 157.750 171.723 M 321.370 194 C 321.370 199.775, 321.535 202.137, 321.737 199.250 C 321.939 196.363, 321.939 191.637, 321.737 188.750 C 321.535 185.863, 321.370 188.225, 321.370 194 M 456.374 194.500 C 456.376 200.550, 456.541 202.896, 456.740 199.713 C 456.939 196.531, 456.937 191.581, 456.736 188.713 C 456.535 185.846, 456.372 188.450, 456.374 194.500 M 313 189 C 311.075 190.054, 309.860 190.935, 310.300 190.958 C 311.359 191.014, 317 188.081, 317 187.474 C 317 186.820, 316.941 186.842, 313 189 M 154.250 194.728 C 156.313 194.944, 159.688 194.944, 161.750 194.728 C 163.813 194.513, 162.125 194.336, 158 194.336 C 153.875 194.336, 152.188 194.513, 154.250 194.728 M 283.280 194.736 C 285.909 194.943, 289.959 194.940, 292.280 194.731 C 294.601 194.521, 292.450 194.352, 287.500 194.355 C 282.550 194.358, 280.651 194.530, 283.280 194.736 M 418.280 194.736 C 420.909 194.943, 424.959 194.940, 427.280 194.731 C 429.601 194.521, 427.450 194.352, 422.500 194.355 C 417.550 194.358, 415.651 194.530, 418.280 194.736 M 608.250 194.735 C 610.862 194.941, 615.138 194.941, 617.750 194.735 C 620.362 194.529, 618.225 194.360, 613 194.360 C 607.775 194.360, 605.638 194.529, 608.250 194.735 M 346.252 201.500 C 346.263 203.700, 346.468 204.482, 346.707 203.238 C 346.946 201.994, 346.937 200.194, 346.687 199.238 C 346.437 198.282, 346.241 199.300, 346.252 201.500 M 255 216.702 C 255.825 217.001, 258.075 218.653, 260 220.373 L 263.500 223.500 260.054 219.750 C 258.158 217.688, 255.908 216.036, 255.054 216.079 C 253.710 216.147, 253.702 216.231, 255 216.702 M 381.607 223.892 C 376.951 228.576, 373.981 232.336, 374.302 233.142 C 374.718 234.188, 374.860 234.150, 374.921 232.975 C 375.008 231.305, 388.584 217.558, 391 216.694 C 392.317 216.223, 392.314 216.148, 390.977 216.079 C 390.139 216.036, 385.922 219.551, 381.607 223.892 M 305 229 C 303.075 230.054, 301.860 230.935, 302.300 230.958 C 303.359 231.014, 309 228.081, 309 227.474 C 309 226.820, 308.941 226.842, 305 229 M 286.750 256.706 C 287.988 256.944, 290.012 256.944, 291.250 256.706 C 292.488 256.467, 291.475 256.272, 289 256.272 C 286.525 256.272, 285.512 256.467, 286.750 256.706 M 421.750 256.706 C 422.988 256.944, 425.012 256.944, 426.250 256.706 C 427.488 256.467, 426.475 256.272, 424 256.272 C 421.525 256.272, 420.512 256.467, 421.750 256.706" stroke="none" fill="#b2e4f7" fill-rule="evenodd"/><path d="M 2.245 96.718 L 2.500 191.500 14 191.500 L 25.500 191.500 25.769 170.450 L 26.039 149.399 31.898 143.601 L 37.757 137.803 43.191 144.651 C 46.180 148.418, 55.306 160.050, 63.471 170.500 C 71.636 180.950, 79.006 190.063, 79.849 190.750 C 82.203 192.669, 108.870 192.502, 109.614 190.563 C 109.955 189.675, 99.680 176.096, 82.677 154.967 L 55.189 120.807 72.844 103.637 C 82.555 94.194, 94.213 82.909, 98.750 78.560 C 103.288 74.211, 107 69.831, 107 68.827 L 107 67 92.243 67 L 77.485 67 51.993 92.508 L 26.500 118.015 26 60.258 L 25.500 2.500 13.745 2.218 L 1.990 1.936 2.245 96.718 M 505.245 96.750 L 505.500 191.500 517 191.500 L 528.500 191.500 528.755 96.750 L 529.010 2 517 2 L 504.990 2 505.245 96.750 M 154.500 64.715 C 140.949 66.589, 120 76.541, 120 81.105 C 120 83.340, 130.044 97.893, 131.629 97.956 C 132.250 97.980, 135.373 96.425, 138.569 94.501 C 148.243 88.675, 154.457 86.761, 164 86.667 L 172.500 86.583 177.852 89.506 C 184.432 93.100, 188.976 100.127, 188.991 106.731 C 189.001 111.628, 190.391 111.068, 172.277 113.457 C 141.830 117.471, 124.968 125.885, 118.080 140.500 C 110.872 155.793, 116.918 176.777, 131.276 186.308 C 147.004 196.747, 167.341 196.712, 188.250 186.210 C 188.662 186.003, 189 186.716, 189 187.794 C 189 191.431, 191.235 192.084, 202.645 191.785 L 213.500 191.500 213.760 147.185 C 213.983 109.290, 213.790 101.973, 212.427 96.685 C 208.071 79.788, 196.691 69.372, 178.335 65.483 C 171.910 64.122, 161.268 63.779, 154.500 64.715 M 272.032 65.998 C 252.005 71.422, 237.934 88.021, 232.970 112.080 C 229.800 127.445, 230.595 141.017, 235.542 156 C 243.809 181.036, 261.477 194, 287.328 194 C 299.439 194, 307.035 192.255, 315.750 187.470 L 322 184.038 321.979 193.269 C 321.916 221.252, 310.439 234.073, 286.591 232.803 C 276.939 232.289, 270.524 229.471, 261.829 221.923 C 258.710 219.215, 255.548 217, 254.802 217 C 252.615 217, 240 230.310, 240 232.619 C 240 236.924, 257.583 249.270, 269.132 253.074 C 275.474 255.162, 278.310 255.490, 289.500 255.430 C 300.819 255.370, 303.555 255.012, 310.661 252.665 C 328.157 246.886, 338.713 235.100, 344.259 215.154 L 346.388 207.500 346.763 139.592 C 346.969 102.243, 346.873 70.631, 346.550 69.342 L 345.962 67 333.981 67 L 322 67 322 70.978 L 322 74.956 317.250 71.942 C 305.895 64.737, 286.231 62.153, 272.032 65.998 M 407.032 66.065 C 402.924 67.141, 397.140 69.478, 394.178 71.260 C 365.233 88.673, 356.991 139.898, 378.065 171.406 C 389.157 187.989, 403.545 194.696, 425.974 193.738 C 438.462 193.205, 445.841 191.222, 452.697 186.556 L 456.500 183.968 456.829 192.234 C 457.936 219.991, 445.704 234.075, 421.591 232.809 C 414.843 232.455, 412.475 231.838, 407.325 229.093 C 403.929 227.283, 399.084 223.821, 396.558 221.401 C 394.032 218.980, 391.399 217, 390.707 217 C 388.901 217, 375 231.247, 375 233.099 C 375 234.715, 384.549 242.879, 391.532 247.235 C 403.870 254.931, 422.031 257.791, 438.037 254.558 C 450.025 252.138, 458.274 247.936, 465.500 240.571 C 472.210 233.731, 476.068 226.619, 479.259 215.207 L 481.414 207.500 481.765 139.548 C 481.958 102.175, 481.856 70.562, 481.539 69.298 L 480.962 67 468.981 67 L 457 67 457 70.583 C 457 72.554, 456.663 74.017, 456.250 73.833 C 455.837 73.650, 452.575 72.035, 449 70.244 C 436.564 64.013, 420.847 62.448, 407.032 66.065 M 597.500 64.698 C 568.022 68.607, 546.701 94.997, 546.772 127.485 C 546.800 140.043, 548.877 149.096, 554.211 159.898 C 562.312 176.306, 578.021 188.421, 596.534 192.540 C 607.825 195.052, 626.734 194.194, 637.500 190.681 C 645.608 188.035, 658.528 180.672, 659.498 178.144 C 659.814 177.322, 656.833 173.503, 652.139 168.713 L 644.250 160.664 639.576 163.402 C 621.275 174.128, 598.464 172.765, 584.755 160.128 C 579.564 155.343, 575.349 148.036, 574.417 142.203 L 573.748 138.020 620.124 137.760 L 666.500 137.500 666.383 125 C 666.284 114.437, 665.860 111.248, 663.644 104.422 C 654.648 76.711, 627.925 60.662, 597.500 64.698 M 596.703 87.385 C 591.001 89.505, 585.658 93.361, 581.658 98.242 C 577.604 103.189, 574.055 110.398, 574.022 113.750 L 574 116 607.611 116 L 641.223 116 640.547 112.250 C 638.894 103.082, 631.564 93.407, 622.845 88.884 C 617.345 86.031, 602.617 85.187, 596.703 87.385 M 282.344 88.985 C 269.428 91.715, 260.839 101.167, 257.955 115.822 C 256.157 124.963, 257.187 142.957, 259.920 150.147 C 264.426 162, 273.849 168.970, 286.461 169.779 C 300.056 170.652, 312.014 165.977, 318.709 157.172 L 322 152.845 322 129.618 L 322 106.392 319.078 101.783 C 316.083 97.061, 310.138 92.847, 303.004 90.389 C 297.860 88.617, 287.437 87.909, 282.344 88.985 M 417.344 88.985 C 407.290 91.110, 398.834 98.536, 395.028 108.581 C 392.193 116.063, 391.148 132.991, 392.954 142.170 C 395.246 153.820, 400.929 162.341, 409.380 166.799 L 414.500 169.500 425 169.491 C 434.196 169.483, 436.189 169.160, 441.046 166.890 C 447.459 163.892, 453.471 158.923, 455.551 154.901 C 456.695 152.689, 457 147.177, 457 128.700 L 457 105.300 454.042 101.217 C 450.968 96.973, 444.564 92.649, 438.004 90.389 C 432.860 88.617, 422.437 87.909, 417.344 88.985 M 178.500 134.681 C 170.792 135.662, 158.010 138.448, 153.379 140.157 C 147.025 142.502, 141.442 147.792, 139.904 152.925 C 138.215 158.563, 141.442 164.999, 147.846 168.764 C 156.492 173.847, 174.315 172.082, 184.500 165.135 L 188.500 162.407 188.777 148.203 L 189.055 134 185.277 134.150 C 183.200 134.232, 180.150 134.471, 178.500 134.681" stroke="none" fill="#34bcec" fill-rule="evenodd"/></svg>